<svg aria-hidden="true" style="width:0;height:0;position:absolute;overflow:hidden" xmlns="http://www.w3.org/2000/svg"><defs><symbol id="icon-Arrow-6" viewBox="0 0 160 32"><path fill="#ea4781" style="fill:var(--color1,#ea4781)" d="M157.414 17.414a2 2 0 0 0 0-2.828L144.686 1.858a2 2 0 1 0-2.828 2.828L153.172 16l-11.314 11.314a2 2 0 1 0 2.828 2.828l12.728-12.728zM0 18h156v-4H0v4z"/></symbol><symbol id="icon-Ellipse-1" viewBox="0 0 32 32"><path fill="none" stroke="#ea4781" style="stroke:var(--color1,#ea4781)" stroke-width="1.143" d="M31.429 16c0 8.521-6.908 15.429-15.429 15.429S.571 24.521.571 16 7.479.571 16 .571 31.429 7.479 31.429 16z"/></symbol><symbol id="icon-Facebook" viewBox="0 0 32 32"><path fill="#fff" style="fill:var(--color2,#fff)" d="M0 16C0 7.163 7.163 0 16 0s16 7.163 16 16-7.163 16-16 16S0 24.837 0 16zm17.668 9.408v-8.705h2.403l.318-3h-2.721l.004-1.501c0-.782.074-1.202 1.198-1.202h1.502V8h-2.403c-2.887 0-3.903 1.455-3.903 3.902v1.801h-1.799v3h1.799v8.705h3.602z"/></symbol><symbol id="icon-Inst" viewBox="0 0 32 32"><path fill="#fff" style="fill:var(--color2,#fff)" d="M0 16C0 7.163 7.163 0 16 0s16 7.163 16 16-7.163 16-16 16S0 24.837 0 16zm16.001-8.533c-2.318 0-2.608.01-3.519.052-.908.042-1.529.185-2.071.396-.561.218-1.037.509-1.512.984s-.766.95-.985 1.511c-.212.543-.356 1.163-.396 2.071-.041.91-.051 1.201-.051 3.519s.01 2.608.052 3.518c.042.908.186 1.529.396 2.071.218.561.51 1.037.984 1.512s.95.767 1.511.985c.543.211 1.163.355 2.071.396.91.041 1.201.052 3.518.052s2.608-.01 3.518-.052c.908-.042 1.529-.185 2.072-.396.561-.218 1.036-.51 1.511-.985s.766-.95.985-1.512c.21-.543.354-1.163.396-2.071.041-.91.052-1.2.052-3.518s-.011-2.608-.052-3.519c-.043-.908-.187-1.528-.396-2.071-.219-.561-.51-1.037-.985-1.512s-.949-.766-1.511-.984c-.544-.211-1.164-.355-2.073-.396-.91-.041-1.2-.052-3.518-.052h.003z"/><path fill="#fff" style="fill:var(--color2,#fff)" d="M15.235 9.004h.766c2.278 0 2.548.008 3.448.049.832.038 1.284.177 1.584.294.398.155.682.34.981.638s.484.583.639.981c.117.3.256.752.294 1.584.041.9.05 1.17.05 3.447s-.009 2.548-.05 3.447c-.038.832-.177 1.284-.294 1.584-.155.398-.34.682-.639.98s-.582.484-.981.638c-.3.117-.752.256-1.584.294-.9.041-1.17.05-3.448.05s-2.549-.009-3.448-.05c-.832-.038-1.284-.177-1.585-.294-.398-.155-.683-.34-.981-.638s-.484-.582-.639-.981c-.117-.3-.256-.752-.294-1.584-.041-.9-.049-1.17-.049-3.449s.008-2.548.049-3.447c.038-.832.177-1.284.294-1.584.155-.398.34-.683.639-.981s.583-.484.981-.639c.301-.117.753-.256 1.585-.294.787-.036 1.092-.046 2.683-.048v.002zm5.321 1.417a1.024 1.024 0 1 0 0 2.048 1.024 1.024 0 0 0 0-2.048zm-4.555 1.197a4.382 4.382 0 1 0 0 8.764 4.382 4.382 0 0 0 0-8.764z"/><path fill="#fff" style="fill:var(--color2,#fff)" d="M16.001 13.156a2.844 2.844 0 1 1 0 5.687 2.844 2.844 0 0 1 0-5.687z"/></symbol><symbol id="icon-Logo_1" viewBox="0 0 112 33"><path stroke="#fff" d="M0 32.5h112"/><path d="M10.316 15.65c1.59.642 2.825 1.408 3.706 2.297.881.889 1.322 1.863 1.322 2.922 0 1.683-.785 3.092-2.356 4.227-1.59 1.116-3.43 1.674-5.517 1.674-2.203 0-4.004-.492-5.402-1.475C.689 24.292 0 23.035 0 21.52c0-1.059.412-2.033 1.236-2.922.823-.888 1.953-1.588 3.39-2.099-2.51-1.286-3.764-2.95-3.764-4.993 0-1.494.66-2.742 1.983-3.745C4.205 6.76 5.737 6.26 7.442 6.26c2.107 0 3.803.463 5.086 1.39 1.284.908 1.925 2.014 1.925 3.32 0 1.966-1.379 3.526-4.137 4.68Zm-7.04-5.646c0 1.002.277 1.844.833 2.524.575.681 1.532 1.296 2.873 1.845l2.558.992c1.609-1.267 2.413-2.79 2.413-4.567 0-1.267-.412-2.27-1.235-3.007-.824-.757-1.992-1.135-3.506-1.135-1.11 0-2.05.331-2.816.993-.747.662-1.12 1.447-1.12 2.355Zm9.654 12.539c0-1.835-1.34-3.282-4.022-4.34L5.89 17.067c-.249-.057-.43-.133-.545-.227-1.954 1.229-2.931 2.808-2.931 4.737 0 1.38.488 2.506 1.465 3.376.996.851 2.328 1.277 3.994 1.277 1.61 0 2.854-.34 3.736-1.022.88-.7 1.321-1.588 1.321-2.666ZM28.493 26.741c-2.873 0-5.334-.907-7.384-2.723-2.05-1.816-3.075-4.218-3.075-7.206 0-3.064 1.006-5.589 3.017-7.574 2.05-1.986 4.569-2.98 7.557-2.98.805 0 1.715.086 2.73.256s1.6.256 1.753.256c.728 0 1.226-.445 1.494-1.334.115-.151.172-.151.172 0l2.156 8.851c0 .076-.039.104-.115.085-.02 0-.048-.028-.087-.085-.92-2.458-2.193-4.35-3.821-5.673-1.628-1.324-3.132-1.986-4.512-1.986-1.838 0-3.39.785-4.654 2.354-1.246 1.57-1.868 3.65-1.868 6.242 0 2.893.804 5.248 2.413 7.064 1.629 1.815 3.755 2.723 6.38 2.723 3.352 0 5.938-2.005 7.758-6.014.076-.076.143-.085.2-.029.058.038.068.104.03.199-2.3 5.05-5.68 7.574-10.144 7.574ZM50.937 6.259c3.295 0 5.958.936 7.989 2.808 2.05 1.854 3.074 4.294 3.074 7.32 0 2.988-1.073 5.475-3.218 7.46-2.146 1.968-4.818 2.951-8.017 2.951s-5.814-.927-7.844-2.78c-2.012-1.872-3.017-4.303-3.017-7.29 0-2.99 1.053-5.476 3.16-7.462 2.108-2.005 4.732-3.007 7.873-3.007Zm.546 20.142c1.935-.038 3.563-.804 4.885-2.298 1.322-1.513 1.944-3.783 1.868-6.809-.02-2.799-.766-5.276-2.241-7.432-1.437-2.175-3.295-3.244-5.575-3.206-1.954.038-3.592.813-4.913 2.326-1.322 1.551-1.945 3.84-1.868 6.866.02 1.72.345 3.413.977 5.078.613 1.588 1.523 2.912 2.73 3.971 1.207 1.04 2.586 1.542 4.137 1.504ZM74.583 26.798c-1.092 0-2.26-.085-3.505-.255-1.246-.17-1.993-.255-2.242-.255-.593 0-1.015.434-1.264 1.305-.02.056-.058.085-.115.085-.038 0-.067-.029-.086-.085l-2.184-9.164c-.02-.075-.01-.113.029-.113.096 0 .153.028.172.085.92 2.345 2.241 4.265 3.965 5.759 1.744 1.513 3.487 2.27 5.23 2.27 1.437 0 2.634-.36 3.592-1.079.977-.737 1.465-1.654 1.465-2.752.115-1.229-.412-2.212-1.58-2.95-.345-.227-.824-.463-1.437-.71l-1.839-.68c-.306-.113-1.13-.378-2.47-.794-2.3-.7-3.966-1.504-5-2.412-1.035-.926-1.552-2.127-1.552-3.603 0-1.513.594-2.751 1.781-3.716 1.188-.983 2.778-1.475 4.77-1.475.881 0 1.877.085 2.989.255 1.11.17 1.8.256 2.068.256.268-.038.489-.123.661-.256.192-.151.316-.302.374-.454.076-.15.153-.35.23-.595.019-.057.047-.086.086-.086.038 0 .067.029.086.086l2.069 8.567c0 .114-.048.151-.144.114-.038 0-.067-.038-.086-.114-.881-2.288-2.107-4.104-3.678-5.447-1.532-1.324-3.19-1.986-4.97-1.986-1.055 0-1.964.331-2.73.993-.729.662-1.093 1.457-1.093 2.383.02.776.173 1.4.46 1.873.307.472.89.926 1.753 1.361.881.435 2.212.918 3.994 1.447 2.548.719 4.473 1.57 5.775 2.553 1.303.984 1.954 2.204 1.954 3.66 0 1.721-.737 3.14-2.212 4.255-1.475 1.116-3.247 1.674-5.316 1.674ZM111.833 26.288c.057 0 .096.018.115.056.038.038.048.076.028.114-.019.038-.067.057-.143.057a37.63 37.63 0 0 1-1.925-.057c-.709-.02-1.073-.029-1.092-.029l-2.931.029c-.096 0-.498.01-1.207.028-.69.038-1.293.066-1.81.085a.196.196 0 0 1-.144-.056.12.12 0 0 1 0-.114.196.196 0 0 1 .144-.057c.44-.019.776-.047 1.005-.085.25-.038.489-.113.719-.227.23-.132.393-.284.488-.454.115-.17.211-.435.288-.794.095-.36.153-.757.172-1.192.038-.453.067-1.05.086-1.787V8.245l-6.867 9.503 1.034 1.476c-1.11.87-1.8 1.598-2.069 2.184-.038.057-.086.057-.143 0L88.328 9.011v11.943c0 1.456.364 2.714 1.092 3.773.728 1.021 1.743 1.551 3.046 1.589.058 0 .096.019.115.057.038.037.038.075 0 .113-.02.038-.058.057-.115.057-.383 0-1.245-.02-2.586-.057a61.048 61.048 0 0 0-1.753-.028c-.402 0-.862.01-1.379.028a71.525 71.525 0 0 1-2.04.057c-.077 0-.115-.028-.115-.085a.172.172 0 0 1 .115-.114c1.015-.038 1.81-.5 2.385-1.39.594-.889.89-1.967.89-3.234 0-1.797-.009-3.47-.028-5.021V11.62c0-1.457-.086-2.525-.259-3.206-.172-.68-.46-1.125-.862-1.333-.383-.227-1.005-.34-1.868-.34-.114 0-.172-.039-.172-.114 0-.076.058-.114.172-.114.613 0 1.303.02 2.07.057l1.206.028h2.414l7.873 10.866 7.844-10.866h2.443l1.092-.028a37.599 37.599 0 0 1 1.925-.057c.153 0 .201.048.143.142-.038.057-.086.085-.143.085-.651.038-1.13.095-1.437.17-.287.076-.546.284-.776.625-.23.321-.373.756-.431 1.305-.057.53-.095 1.333-.115 2.41v10.526c.02 1.078.058 1.891.115 2.44.058.53.201.964.431 1.305.23.321.489.52.776.595.307.076.786.133 1.437.17Z" fill="#fff"/><path stroke="#fff" d="M0 .564h112"/></symbol><symbol id="icon-Telegram" viewBox="0 0 32 32"><path fill="#fff" style="fill:var(--color2,#fff)" d="M32 16c0 8.837-7.163 16-16 16S0 24.837 0 16 7.163 0 16 0s16 7.163 16 16zm-21.286-1.466c-1.603.7-3.25 1.419-4.755 2.248-.786.576.259.983 1.239 1.365.156.061.31.121.455.181.121.037.243.076.368.116 1.09.347 2.306.735 3.365.152 1.739-.999 3.38-2.154 5.02-3.308.537-.378 1.074-.756 1.615-1.129l.085-.055c.46-.298 1.496-.97 1.113-.045-.906.99-1.876 1.867-2.851 2.749-.657.594-1.317 1.19-1.961 1.825-.561.456-1.143 1.372-.515 2.01a281.666 281.666 0 0 0 4.384 2.988c.478.321.956.643 1.432.965.808.645 2.071.123 2.249-.885l.238-1.391c.438-2.563.877-5.127 1.264-7.699.053-.403.112-.807.172-1.21.145-.978.29-1.957.335-2.941-.117-.981-1.307-.766-1.969-.545-3.403 1.295-6.773 2.686-10.129 4.102-.38.168-.766.337-1.154.506z"/></symbol><symbol id="icon-WhatsApp" viewBox="0 0 32 32"><path fill="#fff" style="fill:var(--color2,#fff)" d="M16 32C7.163 32 0 24.837 0 16S7.163 0 16 0s16 7.163 16 16-7.163 16-16 16zm.527-7.098c5.246-.002 9.512-4.27 9.514-9.514.001-2.542-.988-4.932-2.784-6.731s-4.185-2.789-6.73-2.79c-5.244 0-9.512 4.268-9.514 9.514a9.486 9.486 0 0 0 1.27 4.756l-1.35 4.93 5.044-1.323a9.5 9.5 0 0 0 4.547 1.158h.004z"/><path fill="#fff" style="fill:var(--color2,#fff)" d="m12.211 22.021-2.993.785.799-2.918-.188-.299a7.88 7.88 0 0 1-1.209-4.208c.002-4.36 3.549-7.907 7.911-7.907 2.112.001 4.098.824 5.591 2.319s2.315 3.481 2.314 5.594c-.002 4.36-3.549 7.908-7.908 7.908h-.003a7.905 7.905 0 0 1-4.025-1.102l-.289-.171zm9.11-4.371c-.059-.099-.218-.159-.456-.278s-1.406-.694-1.624-.773c-.218-.079-.376-.119-.535.119s-.614.774-.753.932c-.139.159-.277.178-.515.059s-1.004-.37-1.912-1.18c-.707-.63-1.184-1.409-1.322-1.647s-.015-.367.104-.485c.107-.107.238-.278.357-.417s.158-.238.238-.396c.079-.159.04-.298-.02-.417s-.535-1.289-.733-1.765c-.193-.464-.389-.401-.535-.408-.138-.007-.297-.008-.456-.008s-.416.06-.634.298c-.218.238-.832.813-.832 1.983s.852 2.301.971 2.459c.119.159 1.676 2.56 4.061 3.59.567.245 1.01.391 1.355.501.569.181 1.088.155 1.497.094.457-.068 1.406-.575 1.605-1.13s.198-1.031.139-1.13z"/></symbol></defs></svg>